<?xml version="1.0" encoding="UTF-8"?>
<svg id="Layer_1" data-name="Layer 1" xmlns="http://www.w3.org/2000/svg" viewBox="0 0 357.38 95.95">
  <defs>
    <style>
      .cls-1 {
        fill: #0b3461;
      }

      .cls-1, .cls-2, .cls-3, .cls-4, .cls-5, .cls-6, .cls-7, .cls-8, .cls-9, .cls-10, .cls-11, .cls-12, .cls-13, .cls-14, .cls-15, .cls-16, .cls-17, .cls-18, .cls-19, .cls-20, .cls-21, .cls-22, .cls-23, .cls-24, .cls-25, .cls-26, .cls-27, .cls-28, .cls-29, .cls-30, .cls-31, .cls-32, .cls-33, .cls-34, .cls-35, .cls-36, .cls-37, .cls-38, .cls-39, .cls-40, .cls-41, .cls-42, .cls-43, .cls-44, .cls-45, .cls-46, .cls-47, .cls-48, .cls-49, .cls-50, .cls-51, .cls-52, .cls-53, .cls-54, .cls-55, .cls-56, .cls-57, .cls-58, .cls-59, .cls-60, .cls-61, .cls-62, .cls-63, .cls-64, .cls-65, .cls-66, .cls-67, .cls-68, .cls-69, .cls-70, .cls-71 {
        stroke-width: 0px;
      }

      .cls-2 {
        fill: #0f96d7;
      }

      .cls-3 {
        fill: #219bcc;
      }

      .cls-4 {
        fill: #169ad0;
      }

      .cls-5 {
        fill: #113157;
      }

      .cls-6 {
        fill: #043466;
      }

      .cls-7 {
        fill: #079cd0;
      }

      .cls-8 {
        fill: #0e96db;
      }

      .cls-9 {
        fill: #0f98d4;
      }

      .cls-10 {
        fill: #299ac4;
      }

      .cls-11 {
        fill: #1497d5;
      }

      .cls-12 {
        fill: #1198d0;
      }

      .cls-13 {
        fill: #0e97dc;
      }

      .cls-14 {
        fill: #093260;
      }

      .cls-15 {
        fill: #2698ca;
      }

      .cls-16 {
        fill: #3291bd;
      }

      .cls-17 {
        fill: #0497d1;
      }

      .cls-18 {
        fill: #0a99d4;
      }

      .cls-19 {
        fill: #0b3260;
      }

      .cls-20 {
        fill: #0e98d2;
      }

      .cls-21 {
        fill: #0b3561;
      }

      .cls-22 {
        fill: #099ccf;
      }

      .cls-23 {
        fill: #9cc8e3;
      }

      .cls-24 {
        fill: #0c3460;
      }

      .cls-25 {
        fill: #0b99d5;
      }

      .cls-26 {
        fill: #1196da;
      }

      .cls-27 {
        fill: #173863;
      }

      .cls-28 {
        fill: #067eba;
      }

      .cls-29 {
        fill: #013869;
      }

      .cls-30 {
        fill: #0899dc;
      }

      .cls-31 {
        fill: #0a3367;
      }

      .cls-32 {
        fill: #9cc7e0;
      }

      .cls-33 {
        fill: #fdfdfd;
      }

      .cls-34 {
        fill: #069cd3;
      }

      .cls-35 {
        fill: #0c325e;
      }

      .cls-36 {
        fill: #153860;
      }

      .cls-37 {
        fill: #0e97d2;
      }

      .cls-38 {
        fill: #1f99cf;
      }

      .cls-39 {
        fill: #0e98da;
      }

      .cls-40 {
        fill: #093460;
      }

      .cls-41 {
        fill: #2f9ec5;
      }

      .cls-42 {
        fill: #093463;
      }

      .cls-43 {
        fill: #093564;
      }

      .cls-44 {
        fill: #1499d7;
      }

      .cls-45 {
        fill: #1499d2;
      }

      .cls-46 {
        fill: #013e71;
      }

      .cls-47 {
        fill: #0c98d5;
      }

      .cls-48 {
        fill: #0e3059;
      }

      .cls-49 {
        fill: #093566;
      }

      .cls-50 {
        fill: #0a9ad5;
      }

      .cls-51 {
        fill: #093261;
      }

      .cls-52 {
        fill: #0f97d8;
      }

      .cls-53 {
        fill: #079dd2;
      }

      .cls-54 {
        fill: #fdfdfe;
      }

      .cls-55 {
        fill: #04356a;
      }

      .cls-56 {
        fill: #113567;
      }

      .cls-57 {
        fill: #1296d3;
      }

      .cls-58 {
        fill: #15365e;
      }

      .cls-59 {
        fill: #083566;
      }

      .cls-60 {
        fill: #1899d3;
      }

      .cls-61 {
        fill: #9fc9e0;
      }

      .cls-62 {
        fill: #9ac8e4;
      }

      .cls-63 {
        fill: #18385d;
      }

      .cls-64 {
        fill: #1897cc;
      }

      .cls-65 {
        fill: #099adb;
      }

      .cls-66 {
        fill: #0c99d6;
      }

      .cls-67 {
        fill: #0a9bcf;
      }

      .cls-68 {
        fill: #fefefe;
      }

      .cls-69 {
        fill: #0d97dc;
      }

      .cls-70 {
        fill: #9fc6e7;
      }

      .cls-71 {
        fill: #09345f;
      }
    </style>
  </defs>
  <path class="cls-42" d="M76.54,92.41c-16.99,5.27-33.67,4.85-50-2.64-1.54-.71-2.86-1.6-4.04-2.78-.78-1.25-.06-2.25,1-1.77,4.19,1.87,8.66,2.92,12.62,4.09-.54-1.07-2.28-1.73-3.74-1.82-5.53-.32-9.22-4.02-13.47-6.75-1.73-1.11-2.78-2.37-1.67-4.49,1.58-.93,3.14-.12,4.7.04,1.75.08,2.92-.67,2.74-2.48-.16-1.58-1.57-1.26-2.68-1.21-2.52-1.65-5.18-3.19-5.39-6.7,4.2-2.24,4.48-5.43,2.84-9.6-1.23-3.14-3.23-6.93,1.81-9.02.63,19.73,17.58,31.09,37.75,28.75,1.11-.13,2.11-.6,3.37-.42,2.94.42,4.74-.95,5-4.11q.86-10.5-9.78-10.4c-1.82.02-3.65.02-5.47.03-1.89,0-2.2-1.06-1.74-2.63-.5-1.01.12-1.87.39-2.77.27-.42.65-.7,1.11-.87,3.59.13,7.25,2.25,10.76-.35,1.79-.62,3.59-.43,5.65-.01-3.03-1.28-5.95-1.81-8.96-2.26-3.7-.55-4.54-2.36-3.05-5.44,1.98-.5,3.78-.4,5.69.65,2.49,1.37,2.59,1.19,5.77-1.07-3.9.56-7.47-.53-11.04.3-.9-.04-1.38-.51-1.47-1.4.18-.52.48-.97.89-1.33.46-.32.97-.52,1.52-.59,4.95-.38,9.93.37,14.87-.45,1.92-.23,3.85-.16,5.77-.06,2.89.96,5.98-.17,8.85.85.45.29.68.72.69,1.25-.71,1.64-2.65,1.01-3.85,2.06,2.4,2.79,4.13,5.43.3,8.66-1.86,1.57.21.55.72.66,1.44.3.67,1.59.98,2.2.09-.83-.24-1.88-.09-2.88.17-1.18.63-2.42,2.06-.83.08,10.53-.04,21.05-.08,31.57,0,.85-.75,1.43-1.29,2.05l.08-.05c-3.56.87-7.09,1.81-10.12,4.02Z"/>
  <path class="cls-25" d="M14.37,14.81c1.39-1.18,2.77-2.36,4.16-3.54C27.66,5.24,37.98,2.73,48.58.96c4.15-.69,8.2.66,12.31.4,6.51,1.81,13.25,2.99,19.1,6.69,4.24,2.68,4.2,4.24-.32,6.67-1.08.58-1.22.95-1.18,2.18.15,4.42-1.46,5.51-5.91,4.47-1.21-.28-2.23.53-3.35.76-1.24.32-2.48.43-3.74.18-.77-.11-1.51-.32-2.24-.56-3.74-.9-7.52-1.47-11.37-1.59-3.16-.97-6.14-.21-9.09.9-2.03.24-3.91,1.87-6.09.74-.73-.38-.79-.32-1.01.54-.73,2.9-3.41,3.54-5.74,4.54-1.52-.53-2.92-1.21-3.77-2.66-.3-.69-.65-1.26-1.53-.64-.57.87-1.96,2.07.27,2.23,1.52.11,2.95-.19,3.88,1.36.23,2.23-1.56,3.17-2.82,4.45-.91.56-1.71,1.19-1.63,2.43-.14,1.37-.69,2.55-1.61,3.56-.84.71-1.77,1.14-2.85.86.02.1-.16-.26-.06.05.09.26.34.48.5.78.58,1.87.56,3.62-.64,5.24-1.47,1.11-3.18,1.04-4.88,1.01-2.31-.41-4.62-.17-6.95-.08-5.31.2-7.41-2.21-6.09-7.51,1.37-5.47,3.03-10.92,6.96-15.28,1.36-2.99,3.76-5.24,5.64-7.86Z"/>
  <path class="cls-14" d="M244.37,36.06c-3.04,4.13-6.08,8.26-9.12,12.39-3.59-.4-4.28-3.57-5.74-6-.41-2.82-2.9-4.29-4.2-6.51-.86-1.47-2.47-2.72-1.94-4.78,3-3.97,6-7.94,9-11.9,2.67-1.1,4.1-3.28,5.08-5.85.38-.7.76-1.41,1.14-2.11,2.23-1.55,3.23-4.05,4.79-6.13.62-1.61,1.37-2.89,3.47-2.86,6.46.07,12.91.02,19.37.02,1.25,0,2.5,0,4.9,0-8.49,10.47-15.43,20.78-23.88,29.93-1.32,1-2.66,1.98-2.87,3.81Z"/>
  <path class="cls-32" d="M316.43,3.25c11,1.82,20.8,6.05,28.7,14.17,3.86,3.97,6.84,8.44,8.33,13.82-2.73,1.32-3.43-.81-4.27-2.57-1.34-2.82-2.79-4.91-6.64-4.68-3.52.21-6.59-2.87-6.61-5.65-.04-6.35-4.47-7.62-8.7-9-4.12-1.34-8.7-.98-12.71-3.12,2.98.88,5.45,2.4,4.46,5.78-.95,3.26-3.69,2.55-6.15,1.53-1.8-2.31-4.17-3.03-7.04-2.93-6.48.22-12.96-.21-19.45.77-3.32.5-7.08,1.19-9.53-2.33-.02,2.96-.02,3.14,2.06,3.1,2.49-.05,4.99-.23,7.49-.21,3.26.02,6.39.38,8.34,3.47,1.32,2.1,3.62,1.25,5.41,1.95,2.32.91,5.05.05,7.22,1.65.34.45.39.93.16,1.44-2.95,1.97-6.25,1-9.41,1.05-1.72.03-3.37-.17-3.11,2.36-.02,13.92.03,27.83-.02,41.74,0,2.46.28,5-1.1,7.26-.48.58-1.02.65-1.63.21-1.66-2-1.21-4.41-1.22-6.69-.05-12.45-.14-24.91.04-37.35.06-4.17-1.49-5.43-5.53-5.45-4.37-.02-8.98,1.31-13.13-1.28,0-5.3.07-10.6-.05-15.89-.06-2.8.62-4.24,3.86-4.18,10.76.22,21.52.18,32.28.24,2.58.95,5.39-.38,7.95.79Z"/>
  <path class="cls-47" d="M211.48,79.41c-.98,1.87-2.21,3.54-3.85,4.9-2.16,1.34-3.44,3.52-4.91,5.44-2.51,3.3-5.67,4.39-9.54,3.66-3.15-.59-6.24.42-9.35.15-5.37-.46-5.86-1.5-3.02-5.91.36-.56.84-1.01,1.35-1.43,2.76-.77,5.76.19,8.44-1.17.37-.59,1.47-1.39.52-1.83-1.16-.53-1.69,1.09-2.56,1.69-1.28.76-2.59,1.26-4.07.59.73-4.42,3.82-7.36,6.57-10.51.35.3.86.48.83,1.07.19-.61-.46-.7-.67-1.1.6-1.64.6-3.77,3.13-3.79.77.65,1.15,1.59,1.76,2.36-.19-1.05-1.03-1.63-1.69-2.35-.41-1.52.68-2,1.73-2.51,1.73-.22,3.03,1.14,4.73,1.32.4-2.36-1.78-3.86-1.87-6,2.42-3.81,5.4-7.21,8.09-10.82.82-1.1,1.64-2.53,3.46-2.25,5.18,3.02,7.86,8.19,11.09,12.89.58.85.57,1.86-.16,2.74-1.32,1.57-2.64,3.14-3.95,4.71-2.15,2.62-4.8,4.86-6.05,8.14Z"/>
  <path class="cls-23" d="M313.39,13.27c1.7-.45,4.49,1.22,4.82-1.88.29-2.65-1.44-3.55-4.12-3.54-1.19,0-2.64-1.14-3.62-3.59,8.98,2.88,18.15,2.44,25.66,8.03.99.73,1.75.87,1.29,2.53-1.35,4.94,1.69,7.63,7.11,7.49,3-.07,4.73,2.76,5.64,5.35.65,1.85.87,3.56,3.27,3.59,2.86,7.46,5.29,14.97,3.04,23.1-.54-.41-.94-.92-1.12-1.57-1.65-6.12-1.65-6.02-8.27-6.16-3.57-.08-7.26.8-10.7-.93-1.92-2.91-2.04-5.79.14-8.63,2.39.61,4.72,1.88,7.3.74,1.97-.88,3.25-1.91.74-3.66-2.3.19-1.64,3.25-3.62,3.74-1.01.29-1.91.16-2.64-.66-1.23-1.28-1.19-3.04-1.72-4.59-1.79-5.2-3.52-6.48-9.2-6.77-.67-.03,0,.3-.47-.04-5.83-4.3-13.08-3.53-19.54-5.54,0-.33,0-.67,0-1,1.35-1.78,3.83-.24,5.26-1.77-1.31,1-2.66.91-4.05.17-.96-2.63,1.54-3.3,2.68-4.74.77-.3,1.48-.19,2.11.35Z"/>
  <path class="cls-59" d="M21.27,47.28c-2.87,2.84-2.08,5.78-.46,8.93,2.77,5.41.96,9.44-4.3,10.04-1.37.5-3.01-.04-4.47,1.34,1.56,3,7.98,3.21,5.47,8.66.03,1.14-.27,2.85.91,3.13,4.86,1.15,7.24,7.03,13.06,6.46,2.92-.29,4.5,3.17,7.35,3.71.84.16,1.44.92.76,1.85-.59.81-1.48.73-2.21.24-4.17-2.83-9.69-2.32-13.71-5.56-.75-.61-1.05.26-1.17.93C9.05,78.54,1.23,66.63.19,50.56c-.28-5.97-.28-6,5.57-5.78,2.81.11,5.62-.51,8.42-.02,2.36.29,4.81-.62,7.12.48-.01.68-.02,1.36-.03,2.03Z"/>
  <path class="cls-24" d="M101.47,94.09c-3.42.22-2.03-2.43-2.04-3.83-.13-10.32-.09-20.65-.1-30.97-.01-17.81-.02-35.62-.03-53.44,0-1.82-.38-3.69,2.59-3.6,15.79.51,31.63-1.01,47.38.93,7.87.97,15.26,3.26,20.71,9.6,9.27,10.77,5.9,27.53-6.84,33.88-.86.43-1.76.78-3.52,1.55,8.93,2.38,15.95,6.33,17.47,15.44,1.17,6.97.8,13.96-4.35,19.71-.9.52-1.23-.07-1.52-.76,0-1.88,1.02-3.52,1.26-5.35.27-1.1.66-2.16.98-3.25.24-.86.55-1.71.61-2.61.26-8.84-2.89-15.56-11.66-18.79-.44-.16-.86-.34-1.29-.53-1.3-.63-2.75-.55-4.12-.86-.99-.27-1.79-.76-2.14-1.79-.35-1.87.77-2.75,2.28-3.32,3.61-1.37,5.99-4.58,9.59-6.12,2.69-1.15,5.84-12.54,5.03-15.96-1.27-5.33-3.33-10.09-8.73-12.55-1.2-.81-2.3-1.76-3.62-2.4-4.17-1.02-8.2-2.73-12.62-2.44-3.36,0-6.73.3-10.07-.33-2.71-.91-5.51-.69-8.3-.6-6.78,0-13.57,0-20.36,0-3.85,0-6.07,1.35-5.27,5.63,3.4,12.2-2.11,24.17-.91,36.32.1,14.6-.28,29.19.27,43.78.15.98-.02,1.87-.68,2.64Z"/>
  <path class="cls-28" d="M221.49,66.55c-2.39-6.04-7.05-10.43-11.07-15.29-1.32-.55-1.6-1.6-1.36-2.88,1.49-4.5,5.46-7.31,7.69-11.3.4-.59.86-1.13,1.34-1.65,2.58-2.69,4.85-4.38,7.48.26,1.31,2.32,3.83,3.95,4.82,6.63,1.53,2.11,2.68,4.52,4.86,6.11-.01.33-.02.66-.03.99-.37,1.8-1.36,3.25-2.52,4.63-3.61,4-6.13,8.9-10.31,12.43-.3.04-.61.06-.91.07Z"/>
  <path class="cls-35" d="M218.48,36.37c-.3.32-.6.65-.9.97-3.4,2.4-4.67,6.56-7.65,9.32-.49.45-.75,1-1.51.61-6.96-8.75-14.05-17.39-20.21-26.74,2.38-1.45,3.78.29,4.84,1.83,2.15,3.1,5.68,5.15,6.8,9.07.28.97,1.05,2.38,2.51,1.76,1.13-.48.71-1.72.53-2.67-.42-2.17-.31-4.32,2.3-4.64,2.57-.31,3.7,1.77,4.44,3.93.11.31.12.65.13.98.06,1.43-.92,3.45.75,4.08,1.97.75,2.52-1.66,3.65-2.74,1.45-1.39,1.6-2.88.13-4.32-5.72-5.64-8.97-13.14-14.35-19.05-1.33-1.46-2.79-2.4-4.71-2.4-4.46.02-8.92.17-13.56.13,2.71,1.95,4,5.14,7.59,6.17,3.2.92,2.77,3.58-1.03,7.93-4.67-5.72-9.34-11.45-14.84-18.18,8.97,0,16.79-.05,24.61.04,1.67.02,2.37,1.68,3.26,2.82,5.5,7.02,10.92,14.12,16.45,21.12,1.42,1.79,2.47,3.96,4.67,5.05-.62,2.19-3.35,2.7-3.92,4.93Z"/>
  <path class="cls-60" d="M272.4,22.29c5.3-.05,10.62.05,15.91-.21,3.33-.16,4.2,1.12,4.18,4.32-.1,15.58.02,31.17.07,46.75-.28.07-.56.14-.84.22-3.43-3.59-2.2-8.06-2.03-12.18.44-10.25.15-20.5.18-30.75,0-1.5-.25-2.97-.96-4.3-4.08-2.88-8.4-1.57-12.68-.74-2.56,2.35-1.07,5.4-1.43,8.14.03,14.69-.03,29.36.05,44.04.24,2.35-.13,4.7-.06,7.05,0,1.33.06,2.66.05,3.99,1.23,4.11,5.07,1.43,7.35,2.82,7.88.66,15.75.73,23.62-.08,7.27-.4,14.53-.86,21.44-3.44,2.96-1.1,5.76-2.54,8.31-4.44.93-.7,1.9-2.25,3.23-.43.12.56.03,1.07-.28,1.55-7.22,6.74-16.23,9.09-25.63,9.48-12.3.52-24.63.16-36.95.34-2.84.04-3.78-.95-3.76-3.72.13-22.8.16-45.6.23-68.4Z"/>
  <path class="cls-42" d="M101.47,94.09c0-.62,0-1.24,0-1.85.18-3.58.35-5.83,5.45-3.88,4.1,1.57,9.15.85,13.71.13,4.61-.73,9.17-.79,13.77-.27.53.15,1.03.4,1.49.71,1.24,1.59,2.95,2.2,4.85,1.84,6.18-1.18,12.59-.19,18.71-2.15,1.76-.56,4.3-2.19,5,1.48-8.14,3.72-16.76,4.37-25.56,4.24-12.47-.18-24.94-.17-37.4-.24Z"/>
  <path class="cls-3" d="M338.51,84.59c-.04-.45-.09-.9-.13-1.35.49-2.36,1.62-4.24,3.53-5.83,7.19-5.98,10.26-14.2,11.91-23.04.98-5.25-.32-6.64-5.6-6.8-1.66-.05-3.33.01-5,.01-2.76,0-4.35,1.32-4.85,4.03-.22,1.14-.55,2.27-.85,3.39-2.11,7.76-5.29,14.73-13.41,18.03-1.64.68-3.28,1.35-4.9,2.08-1.75.65-3.51,1.24-5.37,1.5-5.51,1.53-11.14.88-16.72.97-1.97-.08-3.88-.34-5.46-1.69-.94-1.15-.46-1.97.64-2.64,0,0,.26-.11.27-.11.25.07.51.13.77.17,4.11-.88,8.3-.59,12.41-.35,16.06.91,26.5-8.42,28.72-23.51.54-1.47.59-3.16,1.92-4.28,4.8,0,9.62.3,14.39-.09,4.62-.38,6.43,1.21,5.67,5.8-.19,1.12.03,2.3.07,3.46-1.83,12.56-7.54,22.81-17.99,30.24Z"/>
  <path class="cls-37" d="M251.34,71.27c3.86,6.28,9.95,10.89,13.22,17.62.99,2.58.31,4.1-2.63,4.38-1.62.15-3.21.65-4.86.4-1.56-.62-1.09-3.62-3.62-3.11-.89.03-1.77.21-2.66.11-2.03-.63-3.74-2.19-6.09-1.86-.97.14-2.11.08-2.41-1.17-.25-1.03.14-2.44.92-2.65,4.15-1.09,6.86-4.57,10.68-6.14.38.26.73.56,1.01.92-.17-.27-.43-.46-.69-.69-4.88-2.58-6.41-8.11-10.29-11.57-.56-.5-.2-1.56.31-2.29,3.52.66,5.1,3.6,7.13,6.02Z"/>
  <path class="cls-12" d="M63.49,21.27c.67,0,1.34,0,2,0,1.19.94,2.61.39,3.92.59.64.1.95-.38.31-.22-.04.01-.15-.24-.23-.37,1.72-.33,3.96-4.8,5.22.93,1.23-1.78,5.34-1.85,1.94-5.75-1.57-1.8.3-3.31,2.55-3.03,1.28.15,2.21.26,2.77-1.16.68-1.73-.55-2.26-1.62-3.09-4.32-3.34-9.7-3.89-14.61-5.66-1.38-.5-2.83-.83-4.25-1.23-.18-.96.03-1.51,1.15-1.08,7.66,1.07,14.68,3.79,21.04,8.21,2.07,1.44,3.02,2.67.72,4.97-3.03,3.04-5.91,6.31-8.39,9.81-2.47,3.47-4.81,3.84-8.03,1.18-1.36-1.12-3.08-1.81-4.64-2.69-.49-.52-.44-.99.15-1.39Z"/>
  <path class="cls-64" d="M209.45,48.41c.32.95.64,1.91.96,2.86-4.71,3.44-7.04,8.89-10.97,12.98.43,2.53-1.49,3.64-3.02,4.98-.66.67-1.32,1.34-1.99,2.01h0c-1.8.73-2.17,2.54-3,4h0c-2.33,3.33-4.66,6.66-6.99,9.99-.13.54-.46.88-1,1-.28.17-.68.27-.83.52-.97,1.59-3.56,3.27-2.28,4.83,1,1.22,3.74,2.01,5.97,1.2,2.1-.77,4.31-.89,6.36-.26,3.48,1.07,5.96-.31,8.52-2.43,2.23-1.85,3.26-5.05,6.46-5.78-.14.3-.26.6-.41.89-3.76,6.97-8.98,10.84-17.46,9.27-3.66-.68-7.53-.22-11.3-.28-1.18-1.36-.79-2.75-.09-4.15,9.22-12.31,18.45-24.63,27.68-36.93,1.09-1.45,2.44-2.74,2.68-4.67.22-.51.46-.52.72-.03Z"/>
  <path class="cls-4" d="M63.49,21.27c-.05.46-.1.93-.15,1.39-8.39-2.2-16.77-2.39-24.89.87-9.78,3.92-14.67,11.92-17.14,21.72-2.26-.03-4.53-.07-6.79-.1-.33-.2-.44-.4-.33-.59.11-.2.22-.3.33-.3,1.66,0,3.33,0,4.99,0,1.13-2.28-.35-5.67,3-7,.69-1.24,1.16-2.54,1.01-3.99.35-.98,1.41-1.26,2-2,1-1.33,2-2.66,3.01-3.99.11-.56.44-.89,1-1,1.96-1.47,5.05-1.54,5.57-4.77.28-1.77,1.44-.68,2.18-.42,1.92.67,3.46-.75,5.24-.81,3.01-.21,5.82-2.31,9-1,4.1.06,8.09.79,11.99,2Z"/>
  <path class="cls-49" d="M164.43,90.09c-.54-.89-1.17-1.75-2.35-1.11-6.42,3.45-13.67,1.57-20.42,3.12-2.24.52-5.63,1.26-6.2-2.86,5.22-1.29,10.45-3.08,15.78-.69,1.57.7,2.36-.15,3.24-.94,1.08-.97,1.43-2.63,2.96-3.2.96-.36,1.96-.48,2.98-.49,2.35-.06,4.7.04,7.04-.3,1.4.11,2.68.44,3.41,1.8-1.82,2.01-3.69,3.95-6.44,4.66Z"/>
  <path class="cls-11" d="M251.42,90.24c.43-.8,1.17-.98,2-1,.92,1.08,2.39,1.61,3,3,3.73,1.35,7.01,1.58,8.15-3.36,1.74,1.12,2.61,2.88,3.94,5.4-8.2,0-15.97.03-23.74-.03-1.48-.01-2.25-1.32-3.02-2.35-2.84-3.82-5.61-7.7-8.4-11.56.02-.23.04-.46.05-.7.06-.85.33-1.64.79-2.34.82-1.25,1.63-2.77,3.48-1.97,1.41.6,1.68,1.99,1.41,3.4-.35,1.84-.38,3.62.34,5.39,2.09,5.12,5.16,6.7,11.99,6.12Z"/>
  <path class="cls-9" d="M222.4,66.48c2.45-5.08,6.11-9.25,10.02-13.23.18.18.36.35.54.53.83,1.97.95,3.86-.57,5.58-3.06.91-4.01,3.09-3.59,6.06,0,.38-.11.73-.32,1.04-.69.27-.69.28-.17.43.27.08.53.19.79.34.3.16.6.39.91.39,5.79.05,5.71,0,3.28,5.93-.86,2.09,1.8,4.26.24,6.5,0,0-.19.3-.19.3-3.65-4.62-7.3-9.24-10.94-13.86Z"/>
  <path class="cls-36" d="M86.58,88.44c1.18-11.37.86-22.78.89-34.18-1.33-3-2-6,0-9,0-.33,0-.66,0-1-2.88-1.37-6.07.28-8.96-.94-2.02,0-4.03,0-6.05,0-5.27,1.26-10.71-.45-15.97.94h0c-.35.29-.75.41-1.21.36-1.53-.16-3.09-.13-4.49-.92-.13-.18-.27-.35-.4-.53.59-1.15,1.69-.84,2.62-.84,10.6-.02,21.21.06,31.81-.06,2.69-.03,3.79.6,3.76,3.55-.15,12.92-.06,25.85-.11,38.77,0,1.51.65,3.52-1.89,3.86Z"/>
  <path class="cls-9" d="M232.42,53.25c.8-1.37,1.1-3.11,2.8-3.82,3.1,4.17,6.21,8.34,9.31,12.51.29.66.49,1.33.32,2.06-.4.59-1.18.56-1.65.9-4.8,3.42-5.99,3.17-8.39-1.94-1.41-2.99-1.3-3.21,2.26-4.73-.87-2.29-3.38-3.04-4.63-4.96h-.01Z"/>
  <path class="cls-38" d="M62.64,1.18c-.38.36-.77.72-1.15,1.08-8.2-1.29-16.13.11-24.15,1.87-6.69,1.47-12.47,4.96-18.81,7.14C26.61,4.11,36.6,1.73,46.86.52c5.19-.62,10.59-.97,15.78.67Z"/>
  <path class="cls-45" d="M14.51,44.26c0,.3,0,.6,0,.89-2.93.05-5.91.44-8.79.07-4.41-.57-5.89,1.3-5.53,5.36-.89-10.47,1.26-20.09,7.93-28.44.51-.5.97-.46,1.38.13-2.22,4.15-4.36,8.32-5.99,12.78-2.72,7.46-1.06,9.97,6.68,8.73,1.63-.26,2.86.54,4.31.48Z"/>
  <path class="cls-29" d="M218.48,36.37c-.14-2.79,2.39-3.46,3.92-4.93.32-.1.64-.19.97-.29,1.9,4,6.62,6.24,7.03,11.18-1.64-1.84-3.54-3.51-4.86-5.56-2.32-3.61-4.53-3.3-7.06-.4Z"/>
  <path class="cls-56" d="M170.88,85.43c-1.14-.4-2.28-.79-3.43-1.19-1.4.27-2.68.02-3.24-1.38-.55-1.37.43-2.05,1.58-2.49,1.93-.41,3.69-.07,5.22,1.22.15.22.29.44.44.66.43.38.86.76,1.29,1.14-.26,1.01-.89,1.69-1.86,2.05Z"/>
  <path class="cls-46" d="M209.45,48.41l-.36-.08s-.36.1-.36.1c-.1-.39-.21-.77-.31-1.16,1.85-2.61,4.6-4.52,5.61-7.83.41-1.35,1.85-2.26,3.54-2.11-1.82,4.34-5.47,7.34-8.12,11.07Z"/>
  <path class="cls-15" d="M244.41,64.25c.04-.77.08-1.54.12-2.31,2.55,2.9,5.29,5.67,6.81,9.32-2.31-2.01-4.61-4.02-6.92-6.02-.26-.22-.34-.44-.26-.66.08-.22.17-.33.25-.33Z"/>
  <path class="cls-58" d="M237.45,13.4c.54,3.39-1.47,5.7-5.08,5.85,1.68-1.97,2.59-4.6,5.08-5.85Z"/>
  <path class="cls-36" d="M76.54,92.41c2.45-3.65,6.2-4.06,10.12-4.02-3.07,2.09-6.48,3.35-10.12,4.02Z"/>
  <path class="cls-71" d="M51.49,56.25c-.37.75-.74,1.5-1.1,2.25-.67-5.11-.87-10.22,0-15.34,0,0,.25.3.25.3,2.51,4.11.6,8.52.85,12.78Z"/>
  <path class="cls-41" d="M211.48,79.41c.4-3.92,3.04-6.16,6.05-8.14-1.37,3.2-3.77,5.62-6.05,8.14Z"/>
  <path class="cls-10" d="M9.51,22.26c-.46-.04-.92-.09-1.38-.13,1.64-2.82,3.3-5.62,6.25-7.32-.86,2.98-3.26,4.96-4.87,7.45Z"/>
  <path class="cls-58" d="M243.38,5.16c-.77,2.69-1.68,5.26-4.79,6.13,1.16-2.39,2.86-4.34,4.79-6.13Z"/>
  <path class="cls-23" d="M316.43,3.25c-2.64-.33-5.44.86-7.95-.79,2.67.06,5.44-.87,7.95.79Z"/>
  <path class="cls-16" d="M178.37,90.04c.03,1.38.06,2.77.09,4.15-.94.18-2.53.39-2.59-.33-.14-1.65,1.23-2.81,2.5-3.82Z"/>
  <path class="cls-63" d="M244.37,36.06c-1.16-2.86,1.01-3.22,2.87-3.81-.43,1.67-1.31,3-2.87,3.81Z"/>
  <path class="cls-31" d="M55.49,45.26c.33.33.67.67,1,1,.34.22.45.44.34.67-.11.22-.23.33-.34.33-1.24,3.06,1.09,4.14,3.04,3.85,4.59-.7,7.94,3.14,12.41,2.68-2.85,3.2-6.38.75-9.46,1.48-4.01.25-7.73-.91-11.41-2.33-.08-2.2-.2-4.4.08-6.6,1.08-1.86,2.49-2.31,4.33-1.06Z"/>
  <path class="cls-40" d="M17.51,76.25c.26-2.96-1.63-4.54-3.86-5.8-1.56-.88-4.87-.76-3.57-3.39,1.09-2.19,3.99-2.74,6.43-.81,2,2,4,4,6,6,1.47,1.67,1.35,3.33,0,5-1.75.11-3.45-.05-5-1Z"/>
  <path class="cls-21" d="M87.47,45.26c0,3,0,6,0,9-2.17,2.36-.15,5.46-1.39,8.08-1.23-1.5-.15-3.29-.84-4.87-1.6.53,0,2.75-2.03,3.28-1.21-1.85-1.51-4.61-.11-5.67,4.93-3.74,1.53-5.54-1.25-7.71-.36-.28-.61-.69-1.17-1.34,2.29-1.38,4.63-.51,6.79-.78Z"/>
  <path class="cls-21" d="M56.49,47.25c0-.33,0-.66,0-1,4.74-1.9,9.53-.74,15.01-.9-4.13,4.17-7.61,6.73-12.12,2.12-.51-.52-1.91-.17-2.89-.22Z"/>
  <path class="cls-71" d="M51.5,53.25c4.08-1.63,7.49.43,10.99,2-3.66,4.38-7.33.91-11,0-.57-.67-.57-1.34,0-2Z"/>
  <path class="cls-59" d="M22.5,77.24c0-1.67,0-3.33,0-5,.19-1.39.72-2.25,2.18-1.19,1.4,1.03,2.42,2.56,1.5,4.15-.66,1.15-1.65,2.85-3.68,2.04Z"/>
  <path class="cls-59" d="M23.86,80.15c.73-.45,1.1-.87,1.44-.85,2.22.15,4.14-3.54,6.55-.55.51.64.22,1.4-.34,1.69-2.44,1.22-4.88,1.28-7.66-.29Z"/>
  <path class="cls-48" d="M51.5,53.25c0,.67,0,1.34,0,2,0,.33,0,.66,0,.99-2.06-4.14-.62-8.52-.85-12.78,1.68-.08,3.46-.8,4.86.79-1.22.9-3.31.03-4,2,0,2.33,0,4.66,0,6.99Z"/>
  <path class="cls-21" d="M56.49,44.26c5.22-2.07,10.65-.51,15.97-.94-5.22,2.01-10.66.43-15.97.94Z"/>
  <path class="cls-21" d="M78.51,43.31c2.99.34,6.15-1.02,8.96.94-2.98-.43-6.14.96-8.96-.94Z"/>
  <path class="cls-21" d="M51.5,46.26c.32-2.68,2.43-1.8,4-2,.33,0,.66,0,.99,0l-1,1c-1.45-.16-2.75.31-3.99,1Z"/>
  <path class="cls-7" d="M18.51,20.27c1.16-.37,2.58-1.79,3.48-.26,1.19,2.03-.89,3.58-1.57,5.33-.43,1.11-1.28,2.01-2.64,1.71-1.29-.28-1.35-1.3-.89-2.29.54-1.16,1.69-2.04,1.61-3.49-.23-.22-.3-.45-.22-.67.08-.22.15-.33.23-.33Z"/>
  <path class="cls-39" d="M29.5,26.27c-.33.33-.66.67-1,1-.77-.23-1.56-.73-2.29-.65-1.39.16-2.86,2.8-4.06.38-.96-1.95.5-3.67,2.34-4.74.81.04,1.55.23,2,1,1,1,2,2,3,3Z"/>
  <path class="cls-26" d="M18.51,20.27c0,.33,0,.67,0,1-1.51,1.03-3.05.77-4.99.01,1.41-1.59,1.57-4.4,4.03-4.39,1.59,0,.7,2.18.96,3.38Z"/>
  <path class="cls-44" d="M37.77,15.71c1.99-.17,2.85.76,3.08,2.14.12.68-.72,1.23-1.38,1-1.48-.52-1.55-1.8-1.7-3.14Z"/>
  <path class="cls-44" d="M51.49,19.26c-3,.33-6,.67-9,1,2.94-.91,5.71-3.33,9-1Z"/>
  <path class="cls-45" d="M19.5,38.26c-1.2-.17-2.88.33-2.72-1.8.03-.34.58-.9.92-.92,2.13-.16,1.63,1.52,1.8,2.72h0Z"/>
  <path class="cls-44" d="M69.49,21.27c1.02.14,2.19.43,1.76,1.7-.45,1.33-1.3.25-1.81-.14-1.19-.9-3.03-.05-3.95-1.56,1.33,0,2.66,0,4,0Z"/>
  <path class="cls-45" d="M22.49,37.25c-2.26,1.79-1.32,4.96-3,7,0-2,0-3.99,0-5.99,0,0,0,0,0,0,1-.34,1.99-.67,2.99-1.01Z"/>
  <path class="cls-4" d="M26.5,23.27c-.82-.02-1.57-.2-2-1,.65-.88,1.49-1.31,2.39-.52.59.52.18,1.12-.39,1.52Z"/>
  <path class="cls-45" d="M25.5,31.26c-.03,1.3-.7,1.97-2,2-1.37-2.7.98-1.69,2-2Z"/>
  <path class="cls-6" d="M260.37,10.72c-.43,1.22-.45,3.22-2.32,3.05-1.43-.13-2.56-1.49-2.49-3.2.08-1.85,1.55-1.64,2.85-1.88,1.73-.32,1.98.58,1.96,2.03Z"/>
  <path class="cls-68" d="M335.51,49.36c-.97,14.15-11.1,24.38-25.24,24.9-5.63.21-11.42,1.54-16.94-.94.05-16.97.09-33.93.14-50.9,1.26-1.53,3.01-1.13,4.62-1.14,4.31-.04,8.62-.03,12.92,0,15.84.09,26.34,12.15,24.5,28.08Z"/>
  <path class="cls-62" d="M308.4,17.27c1.4.2,2.92-.47,4.29.6-1.33,2.28-3.52,1.06-5.29,1.4-3.86.55-7.52-.93-11.31-1.09-.6-.03-1.53-.33-1.73-.77-3.28-7-9.53-3.88-14.47-3.86-5.64.02-5.84.41-4.63-5.33.23-1.09.33-2.21.49-3.27.57,0,1.09-.1,1.14.01,2.41,5.4,4.32,6.44,10.61,5.1,7.4-1.58,14.87-.35,22.29-.78,2.94-.17,2.56,2.54,3.61,4h-2c-3.46,2.63-7.65.53-11.73,1.84,2.91,1.65,6.39-.22,8.73,2.16Z"/>
  <path class="cls-61" d="M335.51,49.36c.16-10.72-4.05-18.92-13.63-24.21-3.3-1.82-6.76-2.82-10.45-2.87-5.99-.08-11.98.08-17.97.14.06-1.7.43-2.66,2.63-2.46,3.74.35,7.53.22,11.3.29,6.33.09,12.95-1.14,18.16,4.04.33.33.87.55,1.34.6,9.38,1.02,11.45,3.23,11.49,12.36-4,1.8-1.14,5.33-2.01,7.92-.34,1.38.18,2.94-.86,4.18Z"/>
  <path class="cls-62" d="M280.82,16.67c-.25.1-.64.41-1.03.4-.73-.01-1.15-.51-.77-1.19.15-.27.8-.4,1.2-.36.45.05.86.36.59,1.15Z"/>
  <path class="cls-52" d="M196.42,69.23c-.06-2.3,2.3-3.15,3.02-4.98.13.1.29.17.39.29,1.66,2.19,4.09,4.71,1.93,7.19-.96,1.1-3.47-1.63-5.33-2.5Z"/>
  <path class="cls-69" d="M209.76,75.8c-1.52-.08-2.19-.82-1.93-1.9.4-1.68.64-3.58,2.79-4.15,1.36-.36,1.64.44,1.8,1.53.36,2.41-1.52,3.29-2.65,4.53Z"/>
  <path class="cls-30" d="M188.44,84.24c.34-2.88,2.47-3.92,4.44-2.53,2.87,2.03-1.54,2.77-1.44,4.52-2.19,1.13-2.65-.36-3-2Z"/>
  <path class="cls-52" d="M194.44,71.25c3.45-.3,3.11,2.27,3.77,4.55-3.72.04-3.87-2.16-3.77-4.55,0,0,0,0,0,0Z"/>
  <path class="cls-17" d="M188.44,84.24c1.04.61,1.45,2.16,3,2-2.67,1.35-5.33.48-8,0,.33-.33.67-.67,1-1,1.45.16,2.75-.31,4-.99Z"/>
  <path class="cls-52" d="M191.44,75.24c1.64.18,2.95.76,2.77,2.72-.03.32-.69.88-.95.83-1.99-.42-1.75-2.09-1.82-3.55h0Z"/>
  <path class="cls-32" d="M308.4,17.27c-2.97,0-5.94.02-8.91-.04-1.42-.03-2.73-.55-2.81-2.17-.09-2.01,1.58-1.75,2.84-1.77,3.96-.04,7.92-.02,11.88-.02.21,2.24-2.02,2.65-3,4Z"/>
  <path class="cls-32" d="M317.99,16.4c3.62-4.97,8.98-2.19,13.86-3.7-3.09,4.6-3.84,5.01-7.64,3.6-2.14-.79-4.08-.69-6.22.1Z"/>
  <path class="cls-70" d="M338.38,37.26c1,0,2,0,3,0,1.62-.86,1.81-2.8,3-3.99,1.39.12,3.31-.32,3.34,1.81.03,1.63-.75,3.08-2.57,3.77-2.73,1.04-6.04.35-6.78-1.59Z"/>
  <path class="cls-61" d="M344.38,33.26c.07,2.14.19,4.31-3,3.99.37-1.55.45-3.26,1.19-4.62,1.07-1.97,1.54-.6,1.81.62Z"/>
  <path class="cls-1" d="M10.55,59.35c-.35,1.42.72,3.79-1.97,3.61-1.77-.11-2.24-1.65-1.76-3.34.43-1.51-.88-4.14,2-4.1,2.58.04,1.32,2.45,1.73,3.82Z"/>
  <path class="cls-42" d="M166.45,81.24c-.65.08-1.54.15-1.5.92.08,1.44,1.6,1.45,2.5,2.08-2.11,1.92-4.67.61-7,1-1.61-2.32-3.32-4.25-6.2-1.58-2.24.4-3.8-1.31-5.74-1.85-.72-.41-1.33-.95-1.96-1.48q-3.76-3.18-6.07,1.28c-.39.44-1.13.59-1.14,1.36,5.35-.61,10.69,2.54,16.05,0,1.47.04,2.38.59,2.06,2.26-1.27,2.38-2.42,6.47-5.58,4.78-5.63-3.01-11.05.72-16.41-.78-4.46-1.96-9.15-1.04-13.7-.79-3.98.22-7.94.33-11.9.2-6.07-.2-8.41-2.62-8.35-8.59.11-12.24-.51-24.49.52-36.77-.63,1.33,1.23,3.49-1.55,3.97-1.42-8.97,1.99-17.56,2.1-26.43.04-3.3-2.07-6.24-1.11-9.55.28-.41.69-1.1,1.04-.97,8.7,3.14,17.7.92,26.54,1.48,3.37.21,6.63.41,9.53,2.33,1.62,1.09,3.5,1.51,5.29,2.16,2.13.77,2.73,2.12.94,3.94-3.1,2.13-6.63,1.25-10.01,1.42-4.07.21-8.17-.32-12.21.34-.4.28-.79.57-1.12.91-1.27,5.06-.77,10.13-.24,15.2.3.64.59,1.27.92,1.9,1.02,3.56,3.46,5,6.86,3.83,3.37-1.15,6.16.02,9.07,1.25,3.54,1.18,7.19.78,10.8.82,2.78.03,5.28.5,6.56,3.39.43.8,1.18.98,2,1,1.06,1.44,2.84-.05,4,1,.33,0,.67,0,1,0,.46,2.75.18,4.7-3.49,3.83-3.45-.82-6.18-.71-4.17,4.18.38.93-.63,1.35-1.56,1.36-8.65-4.01-17.85-2.79-26.92-2.93-3.17-.05-4.28,1.42-4.44,4.52-.67,12.64-.58,12.9,12,12.54,5.79-.17,11.54-1.03,17.22-2.17.49.06,1.24.15,1.32.5.46,2.25.41,4.87,4.03,3.78,1.98-.59,4.79,1,5.69-2.39.25-.94,1.59-1.91,2.3-1.58,3.86,1.78,7.34-1.04,11.03-.65-.33.67-.66,1.33-1,2-.42.97-1.89,1.59-1,3,.06,1.96-.41,3.7-2,5,0,0,0,0,0,0-1.47-1.33-2.82-3.24-5-1Z"/>
  <path class="cls-42" d="M155.45,49.26c-1.75-1.25-3.51-2.19-5.85-2.05-4.41.27-8.82.13-13.14-.95-.18-2.01,1.46-2.02,2.61-2.02,7.43.02,10.61-5.57,14.05-10.65,1.3-1.93-1.54-8.39-4.18-10.56-1.01-1.82-4.37-.87-4.48-3.76,1.06-1.08.69-1.81-.65-1.91-2.02-.15-3.96-.36-5.34-2.09.23-.77.63-1.59.06-2.32-2.17-2.75-.92-4.32,1.94-4.63,2.75-.3,4.65-2.09,7-3.04,4.59-.13,8.75,1.64,13,3-.39.69-1.74,1.31-1.39,1.76,1.23,1.55,2.88.61,4.38.24,9.69,6.61,10.25,11.62,8.21,22.39-1.78,9.38-8.92,10.89-14.89,14.68-.81.51-1.18,1.06-1.31,1.91Z"/>
  <path class="cls-42" d="M175.44,72.25c-3.19.85-5.92,4.92-9.81,1.38-.28-.25-2.08.44-2.1.76-.35,5.24-4.15,3.53-7.13,3.83-1.68.17-3.11.59-4.53-.77-1.88-1.79.59-2.91.51-4.39,1.39-4.02,1.85-8.17,1.87-12.39-.03-.49.08-1.04-.1-1.47-.61-1.43-3.78-1.94-1.71-4.3,1.56-1.78,4.33-2.25,5.9-1.34,3.33,1.93,3.29-.61,4.12-2.29,10.24,3.34,13.18,11.19,12.99,20.99Z"/>
  <path class="cls-43" d="M147.46,5.27c-1.65,4.22-5.76,3.88-9.19,4.57-.02,2.39,3.73,2.43,2.47,4.9-.23.44-1.49.36-2.27.52-4.7-2.83-9.9-1.92-14.97-1.99-3.82-.05-7.64,0-11.47-.01-3.64-.01-7.4.58-10.55-2-.98-6.3-.49-6.92,6.05-6.98,6.98-.06,13.96-.01,20.94-.01,2.54,1.38,5.46-.33,8,1h10.99Z"/>
  <path class="cls-59" d="M100.48,47.26c2.17-2.32.13-5.47,1.99-9.17,0,14.28,0,27.33,0,40.38,0,7.79,1,8.77,8.92,8.78,6.3,0,12.61,0,18.91,0,1.97,0,4.09-.35,5.16,2-10.47-1.17-21.13,3.24-32.55-.54-.65.31.07,2.62-1.44,3.54-1.63-1.47-.96-3.42-.97-5.16-.05-13.27-.03-26.55-.03-39.82Z"/>
  <path class="cls-55" d="M163.44,10.27c-.43.93-1.08,1.71-2.1,1.85-1.78.25-4.07.56-4.52-1.64-.64-3.1,2.14-1.88,3.63-2.22,1,.67,1.99,1.34,2.99,2Z"/>
  <path class="cls-42" d="M136.46,5.27c-2.65-.44-5.54,1-8-1,2.65.44,5.54-1,8,1Z"/>
  <path class="cls-42" d="M161.45,51.25c-1.42.01-3.18,1.42-4-1,1.38.14,2.95-.46,4,1Z"/>
  <path class="cls-42" d="M173.45,77.24c-1.79-.92-1.7-1.19,1-3-.33,1-.67,2-1,3Z"/>
  <path class="cls-51" d="M188.25,20.59c.06-1.55.68-2.79,1.68-4.01.76-.92.46-3.13-.45-2.85-5.11,1.57-4.96-5.44-9.11-5.29-.67.02-1.74-1.11-1.39-2.3.29-.98,1.32-.92,2.09-.92,5.72.02,11.73-.94,17.04.55,3.29.92,6.32,5.22,8.04,8.7,2.99,6.06,7.8,10.53,11.92,15.9-2.01,1.13-3.5,2.81-4.6,4.8-.81,1.47-1.93,2.33-3.63,1.89-2-.51-1.33-2.47-1.71-3.77-.22-.77.77-1.84.7-2.72-.13-1.53-1.1-2.75-2.37-3.65-.78-.54-1.55-.5-2.22.22-1.14,1.23-.65,2.35.13,3.58,1.28,2.03-.16,3.89-1.42,4.72-1.96,1.28-3-.97-3.49-2.33-1.47-4.06-5.39-6.29-7.17-10.09-.76-1.62-2.37-2.23-4.07-2.51,0,0,.03.06.03.06Z"/>
  <path class="cls-66" d="M291.41,75.23c1.66.34,3.33.68,4.99,1.02,6.04.42,12.12,1.81,17.99-.96,1.67-.35,3.34-.69,5-1.04,2.24-.19,2.24,1.38,2.28,2.91-.5.86-1.39,1.25-2.1,1.92.99-.86,3.37,1.67,3.4-1.53.63-1.73.18-3.54.42-5.29,9.29-4.31,12.17-12.81,13.84-21.85.55-2.98,1.95-3.97,4.53-4.11,1.82-.09,3.65-.03,5.48-.03,8.4,0,9.67,1.97,7.56,10.3-2.33,9.17-5.74,17.52-13.82,23.26-1.09.78-.9,2.87-2.59,3.41-9.5,7.13-20.27,9.77-31.99,9.01-8.33.8-16.66.8-24.99,0-2.58-1.23-7.14,2.83-7.99-3,2.6-1.44.33-3.71.92-5.5.7-2.76,2.61-3.9,5.22-3.28,10.63,2.5,21.37,1.07,32.07,1,1.7-.01,3.26.13,4.81.67,1.12.05,2.26.29,3.38-.05-.89.32-1.81.07-2.73.09-3.22-1.91-6.65-1.05-10.04-.83-4.41.28-8.89.9-12.81-2.01-1.41-1.05-3.25-1.79-2.83-4.11Z"/>
  <path class="cls-50" d="M291.41,75.23c4.76,6.78,11.75,5.22,18.27,4.55,2.9-.3,5.34-.1,7.71,1.46.59.67.59,1.33,0,2-3.23-1.63-6.46.12-9.7.05-7.47-.15-14.94-.03-22.41-.06-1.31,0-3.03.29-3.87-.39-3.84-3.13-5.56-.98-7,2.4-.33.35-.65.34-.97,0,0-2.33,0-4.65-.01-6.98,1.08-5.23.5-10.53.44-15.79-.11-10.07.71-20.15-.44-30.2.5-2.7-1.41-6.01,1.98-7.99.5-.41.97-.37,1.4.12.73,1.22.73,2.5.32,3.81-.43,4.95.88,9.84.3,13.98-.08-3.75.14-8.34-.3-12.9,2.21-2.87,6.2-2.91,8.64-5.42,1.55.07,3.16-.48,4.63.43,1.68,4.85.97,9.87.96,14.82-.01,10.37-.24,20.75-.39,31.12-.02,1.25.39,2.26,1.33,3.06-.3.66-.59,1.32-.88,1.97Z"/>
  <path class="cls-57" d="M273.42,32.26c1.06.83.98,2.01.98,3.17,0,13.22,0,26.44,0,39.66,0,1.16.08,2.34-.98,3.17,0-15.33,0-30.66,0-45.99Z"/>
  <path class="cls-57" d="M281.41,92.24c8.33,0,16.66,0,24.99,0-8.33,1.63-16.66,1.63-24.99,0Z"/>
  <path class="cls-57" d="M276.41,24.27c-.33,0-.67,0-1,0,5-1.61,9.99-1.64,14.99,0-1.66,0-3.33,0-4.99,0-3,3.55-6,2.6-9,0Z"/>
  <path class="cls-57" d="M273.43,85.23c.32,0,.65.01.97,0,1.37.13,2.05.85,1.91,2.25-.18,1.88-1.63,1.68-2.9,1.76,0-1.34.01-2.68.02-4.02Z"/>
  <path class="cls-50" d="M314.39,75.29c-.08,1.09-.64,2.25-1.65,2.11-5.43-.71-11.02.99-16.34-1.15,6.01-.09,12.05.43,17.99-.96Z"/>
  <path class="cls-67" d="M321.39,77.24c-.67-1-1.33-2-2-3,1.02-1.29,2.41-1.84,4-1.99,2.18,1.67,2.09,3.33,0,4.99-.67.62-1.33.53-2,0Z"/>
  <path class="cls-18" d="M244.41,64.25c0,.33.01.66.01.99.02,1.14-.07,2.28,1.13,3.03,4.22,2.63,5.68,7.49,8.86,10.97h0c-1.25.05-2.27.52-2.77,1.73-1.1,2.7-2.72,4.21-5.98,3.64-1.9-.33-2.14,1.58-3.15,4.12,4.28-3.03,6.44-.31,8.9,1.5-2.68,3.96-6.84,1.38-8.33.11-3.28-2.79-7.63-6.14-4.91-11.88.45-.95.18-2.07-.93-2.5-1.02-.4-1.37.57-1.81,1.25-.62.96-1.27,1.89-1.91,2.83-2.9-4.08-.17-7.83,1.38-12.02-2.6-.12-5.57,4.86-6.48-.78-.35-.22-.47-.44-.35-.67.12-.22.23-.33.35-.33,1.31-2.2-1.59-6.2,3-7,1.81-1.75.67-3.99,1.01-5.99,2.13.14,3.31,1.84,4.89,2.91,1.35.91,2.51,1.77,1.73,3.58-1.15,2.66-2.74-.43-4.1.2-.32,1.79,1.26,2.64,1.85,3.93,1.26,2.75,2.72,5.39,4.9.44.48-1.1,1.8.14,2.73-.07Z"/>
  <path class="cls-13" d="M256.41,92.24c-1.9-.09-2.91-1.09-3-3,1.82.17,4.34-.34,3,3Z"/>
  <path class="cls-18" d="M254.42,79.24c1.92.05,2.21,1.59,3.02,3.18-2.33-.2-2.84-1.54-3.02-3.18h0Z"/>
  <path class="cls-42" d="M157.45,85.24c-.38-.95-1.05-1.62-2-2-.33.42-.67.42-1,0,.82-3.24,3.35-2.06,5.17-1.68,2.27.47.7,2.39.83,3.68h-3Z"/>
  <path class="cls-47" d="M231.43,59.25c-1.72.85-2.37,2.11-1.53,3.96.73,1.59-.21,2.4-1.47,3.04-1.84-3.56-.39-6.94,3-7Z"/>
  <path class="cls-47" d="M228.43,66.25c0,.33,0,.67,0,1-1.21-.14-2.7.37-3.28-1.41,1.24-.75,2.16.71,3.28.41Z"/>
  <path class="cls-42" d="M166.45,81.24c.14-2.36,2.29-2.56,3.64-2.52,2.29.07-.02,2.65,1.36,3.52l-5-1Z"/>
  <path class="cls-33" d="M154.25,60.67c2.48,4.6,1.59,8.69-1.87,12.39-9.65,4.19-19.85,2.68-29.88,2.86-1.39.03-2.04-.91-1.99-2.3.02-.5-.03-1-.03-1.49.1-5.11-1.72-11.8.83-14.91,2.67-3.27,9.62-.88,14.69-1.02,6.46-.17,13.03-.52,18.25,4.47Z"/>
  <path class="cls-54" d="M121.46,40.2c-.34-.31-.68-.63-1.02-.94-.59-5.99-1.09-11.97.25-17.93l-.14.19c9.63-.66,19.32-2.5,28.75,1.31,5.45,3.23,5.76,13.35-.74,16.07-8.73,3.66-17.9,4.2-27.09,1.31Z"/>
  <path class="cls-19" d="M121.46,40.2c7.08-.42,14.19.19,21.28-.71,4.06-.52,7.51-1.79,9.13-5.69,1.62-3.89.31-7.38-2.49-10.36-.25-.28-.32-.54-.22-.8.1-.25.2-.37.29-.37,6.56,3.71,6.25,12.63.27,18.4-3.95,3.82-8.36,4.91-13.28,5.59-4.14-2.93-8.17-1.73-12.41.07-.05-2.16-2.65-3.56-2.59-6.13Z"/>
  <path class="cls-49" d="M154.45,83.24h1c-1.06,2.35-3.18,2-5.15,1.99-3.73,0-7.37-1.95-11.22-.21-1.06.48-2.39-.58-2.37-1.92.05-2.75,2.34-1.53,3.74-1.86,2.67-1.07,5.33-1.36,8,0,2.48-.77,3.95,1.47,6,2Z"/>
  <path class="cls-27" d="M149.47,22.27c-.03.39-.05.78-.08,1.17-9.41-3.66-19.18-1.95-28.84-1.92,1.4-2.15,3.57-1.06,5.4-1.23,6.15-.59,12.43,1.11,18.5-1.01,1.25,1.69,4.29.4,5.01,3Z"/>
  <path class="cls-42" d="M148.46,81.24c-2.67.25-5.33,1.34-8,0,.41-1.32-2.18-3.12.75-4.07,1.81-.59,3.71-1.28,4.63.94.6,1.43,3,1.1,2.62,3.14Z"/>
  <path class="cls-5" d="M120.69,21.33c-.08,5.98-.17,11.95-.25,17.93-1.47-6-1.9-11.98.25-17.93Z"/>
  <path class="cls-20" d="M342.31,66.76c.4.26,1.19-.27,2.07-.84,1.59-1.01,1.98.42,2.49,1.41.65,1.3-.29,1.99-1.24,2.18-1.48.29-2.75.83-4.06,1.57-1.35.76-2.58,2.9-4.31,1.74-1.9-1.27-.07-3.07.32-4.5.52-1.9,1.79-3.29,4.74-1.57Z"/>
  <path class="cls-65" d="M335.36,61.23c3.38,4.18.98,7.01-.81,9.72-.62.94-2.16,1.73-3.39.34-1.06-1.2-.26-2.26.67-2.9,2.22-1.54,2.44-4.09,3.54-7.16Z"/>
  <path class="cls-34" d="M342.95,57.48c.39,2.08-1.44,1.88-2.5,2.07-1.89.33-1.96-1.22-2.05-2.54-.12-1.76.42-3.88,2.12-3.82,2.06.07,1.6,2.77,2.43,4.29Z"/>
  <path class="cls-8" d="M321.39,77.24c.67,0,1.33,0,2,0,.77,1.44,2.72,3.28-1.14,3.02-1.61-.11-3.22-.02-5.01-.02.82-2.18,2.08-3.19,4.16-3Z"/>
  <path class="cls-60" d="M335.83,82.04c-1.57,1.4-2.61,4.24-6.35,1.98,2.48-.75,3.68-2.85,6.35-1.98Z"/>
  <path class="cls-22" d="M317.39,83.24c0-.67,0-1.33,0-2,2.13.24,4.41-.53,7.18,1-2.77,1.53-5.06.76-7.18,1Z"/>
  <path class="cls-53" d="M277.41,29.26c2.13,6.07.47,12.18.39,18.31-2.03-2-1.09-4.46-1.39-6.71-.46-3.48,1.12-7.19-1.48-10.46-.67-.85.6-1.67,1.48-2.15.55.11.88.45,1,1Z"/>
  <path class="cls-66" d="M277.41,29.26c-.33-.33-.67-.67-1-1,0-1.33,0-2.66,0-3.99,3,.05,6,1.76,9,0-.76,4.72-5.43,3.17-8,5Z"/>
  <path class="cls-2" d="M244.32,77.05c-1.69-1-3.61-2.07-3.71-4.5-.05-1.27.9-2.28,2.24-1.93,2.32.6,3.44,2.35,3.49,4.72.03,1.17-.58,1.82-2.02,1.71Z"/>
</svg>